<svg xmlns="http://www.w3.org/2000/svg" width="400" height="298.667" viewBox="0 0 400 298.667">
  <g fill-rule="evenodd">
    <path d="M190.565 19.754c-6.579.433-11.678 1.106-16.437 2.17-1.033.231-2.703.602-3.711.824-3.179.7-8.515 2.155-9.5 2.591-.184.081-1.303.459-2.487.841s-2.421.81-2.75.953c-.328.143-.685.276-.792.296-.27.052-2.379.895-2.888 1.155-.229.117-1.204.535-2.167.93s-1.775.778-1.805.852-.156.134-.278.134c-.536 0-7.696 3.51-7.956 3.899-.067.102-.123.124-.125.051-.001-.074-.434.106-.961.4s-1.164.641-1.416.771-.459.294-.459.363c0 .07-.097.127-.216.127s-.752.35-1.408.778-1.236.778-1.292.778c-.055 0-.552.3-1.104.666s-1.061.667-1.132.667-.347.187-.613.416c-.267.23-.554.417-.639.417-.229 0-1.929 1.2-1.929 1.361 0 .077-.118.139-.261.139s-.537.207-.875.459l-.781.583c-2.162 1.615-2.697 2.033-2.851 2.227-.102.127-.255.231-.341.231-.085 0-.433.263-.773.583-.34.321-.675.583-.743.582-.069 0-.242.1-.386.223-.143.122-.668.53-1.166.904-.499.375-1.131.88-1.406 1.122s-.91.792-1.41 1.222c-.501.43-1.112.969-1.358 1.198-.247.229-.733.641-1.082.916s-.917.763-1.263 1.084c-.347.32-.857.788-1.134 1.039s-.503.527-.503.615-.087.213-.193.278q-.193.12-.058-.115c.074-.129-.66.548-1.632 1.505s-1.72 1.819-1.665 1.917c.056.097.043.125-.029.06-.19-.171-.632.331-.492.558.068.111.048.15-.047.091-.185-.115-.884.466-.884.735 0 .093-.057.14-.125.103-.069-.037-.257.071-.417.24s-.235.31-.167.313c.069.003-.038.097-.239.208-.2.112-.362.268-.361.349s-.178.267-.398.416-.798.721-1.284 1.271c-.485.55-1.129 1.276-1.43 1.613-.301.338-.506.654-.456.705s-.032.138-.183.196c-.15.058-.274.214-.274.347s-.06.205-.134.159-.281.117-.459.362a9 9 0 0 1-.698.831c-.207.212-.375.445-.375.519 0 .073-.15.269-.334.435-.183.166-.333.361-.333.435 0 .221-.805.954-.922.839-.061-.059-.084.042-.052.226.031.183-.026.318-.127.299-.102-.018-.289.169-.417.417-.127.248-.363.548-.524.668-.16.12-.291.326-.291.458 0 .133-.073.241-.162.241s-.113.125-.055.277c.07.181.042.238-.08.162-.217-.134-.583.453-.406.649.066.072-.016.083-.181.024-.179-.065-.259-.042-.198.057.056.09.017.164-.085.164s-.14.076-.083.168-.013.213-.156.268c-.144.055-.261.193-.261.306 0 .114-.148.341-.329.505s-.29.363-.241.442c.05.08-.027.145-.17.145s-.251.056-.24.125c.056.355-.049.543-.312.554-.181.009-.211.046-.079.099.14.056.013.269-.375.624-.323.296-.587.62-.587.721s-.057.207-.125.238c-.183.081-.875 1.098-.875 1.285 0 .087-.079.186-.176.218s-.194.182-.216.332-.279.519-.571.817c-.411.421-.489.594-.344.769.149.179.126.202-.114.11-.206-.079-.263-.055-.181.078.066.107.043.326-.051.487s-.173.227-.176.147c-.006-.194-.505.226-.505.426 0 .086.087.102.193.037.12-.074.147-.046.072.076-.067.108-.187.155-.268.105s-.233.07-.338.267c-.13.243-.134.322-.011.246.113-.069.145-.015.085.141-.054.14-.158.237-.232.217s-.135.031-.136.112-.078.195-.17.252a.6.6 0 0 0-.223.332c-.03.126-.205.399-.388.607s-.634.966-1 1.686c-.367.719-.765 1.412-.885 1.538s-.177.337-.127.467c.05.131.026.197-.054.148-.169-.105-.7.911-.579 1.107.044.072.004.132-.09.132-.093 0-.255.159-.359.353-.146.272-.143.325.01.23.154-.095.156-.042.011.23-.104.194-.266.353-.36.353s-.124.075-.067.167.023.167-.074.167-.176.154-.176.343-.074.297-.165.241c-.098-.06-.12.014-.055.184q.111.288-.083.167c-.123-.076-.16-.032-.103.118.051.13-.03.284-.179.341-.148.057-.223.179-.166.271s.027.168-.068.168c-.094 0-.13.107-.08.237.05.131-.065.393-.255.583-.191.191-.297.347-.237.347s-.001.131-.136.291c-.267.317-1.249 2.306-1.336 2.705-.03.135-.145.343-.255.463a.52.52 0 0 0-.097.489c.076.198.043.235-.117.136-.166-.102-.197-.046-.126.226.054.207-.006.463-.141.597-.129.13-.236.335-.238.456s-.165.557-.361.97c-.197.412-.367.787-.38.833-.134.503-.306.834-.432.834-.084 0-.149.168-.144.375.01.408-.365 1.824-.52 1.958-.052.046-.2.346-.329.667-.128.32-.324.676-.434.789-.111.113-.325.601-.475 1.083-.15.483-.335.993-.41 1.134s-.19.572-.256.958c-.065.386-.195.702-.288.702-.094 0-.129.108-.078.24.05.131.023.262-.061.291s-.181.203-.215.386a4 4 0 0 1-.164.583c-.055.138-.123.4-.15.584s-.11.377-.183.431c-.074.055-.162.317-.197.584s-.078.503-.096.526a.7.7 0 0 0-.067.167c-.02.069-.091.25-.159.404a3 3 0 0 0-.169.5c-.025.121-.09.333-.144.471-.24.605-1.474 5.288-1.954 7.417l-.565 2.5c-.021.091-.168.916-.327 1.833a226 226 0 0 1-.691 3.75c-.581 3.005-.878 5.679-1.165 10.5-.14 2.337-.29 4.438-.334 4.667-.3 1.557-.185 10.472.162 12.514.056.329.129 1.379.164 2.333.124 3.457.468 6.669 1.104 10.319.482 2.768.555 3.05.807 3.134.137.046.181.001.111-.112-.064-.104-.017-.188.105-.188.279 0 3.866-3.751 4.465-4.669.137-.211.381-.501.542-.644.16-.144.291-.323.291-.399 0-.163.859-.942 1.048-.95.216-.008 1.271-1.131 1.163-1.238-.055-.055-.008-.1.105-.1.298 0 6.543-6.324 6.428-6.51-.053-.086-.009-.157.097-.157.107 0 .417-.188.69-.417s.411-.416.309-.416q-.184-.001.029-.233c.118-.128.271-.198.34-.157.068.042.125-.041.125-.184s.099-.26.22-.26.371-.168.555-.375c.185-.206.629-.645.989-.976.359-.331.811-.781 1.004-1s.886-.914 1.539-1.544 1.15-1.206 1.104-1.28.056-.178.226-.232.408-.282.528-.506.264-.38.321-.345.476-.344.933-.841c.457-.498 2.181-2.262 3.831-3.92 1.65-1.659 2.981-3.083 2.958-3.165s.059-.149.183-.149 1.005-.83 1.958-1.843c.954-1.014 2.015-2.114 2.359-2.444s.625-.7.625-.823.096-.223.213-.223c.239 0 .787-.582.787-.836 0-.09.056-.164.125-.165.216 0 1.542-1.248 1.542-1.45 0-.107.15-.241.333-.299.183-.059.333-.181.333-.273s.113-.28.25-.418c.138-.137.25-.203.25-.146s.193-.106.429-.363 1.543-1.603 2.906-2.991 2.433-2.57 2.377-2.625c-.055-.056-.008-.101.106-.101s.319-.113.456-.25c.138-.138.207-.25.154-.25s.202-.268.565-.596.706-.741.761-.917.173-.32.259-.32c.213 0 .934-.655 2.547-2.312 3.637-3.739 4.72-4.842 9.542-9.707 2.852-2.877 5.252-5.355 5.334-5.507.231-.431 2.888-3.141 3.08-3.141.094 0 .124-.075.068-.167-.057-.091.018-.166.166-.166s.224-.075.167-.167-.004-.167.118-.167 1.359-1.181 2.749-2.625 3.09-3.198 3.778-3.899 1.206-1.32 1.15-1.375c-.055-.055-.009-.101.104-.101s.158-.075.101-.166.009-.167.146-.167.296-.15.354-.333.218-.334.354-.334c.137 0 .203-.075.146-.166s.017-.167.165-.167c.147 0 .395-.225.551-.499s.378-.499.492-.5c.115-.001.209-.076.209-.168 0-.091.07-.166.155-.166.086 0 .831-.694 1.656-1.542 6.49-6.666 8.401-8.679 8.489-8.942.033-.101.155-.183.269-.183.262 0 4.697-4.661 4.635-4.87-.025-.085.031-.107.125-.049s.171-.012.171-.154c0-.143.056-.242.125-.219.17.057.969-.757.912-.929-.025-.075.031-.09.125-.032.094.059.171.038.171-.045 0-.214.59-.869.783-.869.088 0 .261-.187.384-.416.122-.229.285-.417.361-.417s.139-.125.139-.278.051-.226.115-.163c.157.158 6.081-5.875 5.961-6.07-.053-.086.002-.157.122-.159.274-.004 3.135-2.879 3.135-3.15 0-.11.075-.153.167-.097.091.057.166-.014.166-.156 0-.143.075-.26.167-.26s.167-.117.167-.26.065-.22.144-.171c.198.123.72-.48.564-.651-.069-.076-.046-.093.051-.038.098.055.385-.121.64-.39.254-.27.55-.491.656-.493.111-.001.087-.072-.055-.164-.2-.129-.169-.162.152-.164.222-.002.36-.046.308-.098-.053-.053.418-.591 1.047-1.197.628-.605 1.104-1.162 1.058-1.237s0-.137.103-.137c.217 0 .76-.498.552-.505-.075-.003-.006-.082.155-.175.16-.094.291-.252.291-.351 0-.23.791-.969 1.037-.969.102 0 .145-.041.095-.091-.084-.084.943-1.243 1.103-1.243.118 0 2.432-2.298 2.432-2.416 0-.193.458-.571.563-.465.057.057.104.01.104-.104 0-.191.781-1.006 1.655-1.727.197-.163.314-.37.259-.459-.056-.089-.008-.162.105-.162.238 0 1.903-1.688 1.85-1.875-.02-.069.076-.125.214-.125.137 0 .25-.069.25-.153s.281-.458.625-.831.737-.819.875-.991c.137-.172.494-.437.792-.59s.541-.347.541-.432.469-.62 1.042-1.188c.573-.567 1.024-1.093 1.002-1.167s.072-.093.208-.041c.173.066.248-.015.248-.266 0-.198.075-.314.167-.258.092.057.167-.014.167-.156 0-.143.112-.26.25-.26.137 0 .25-.069.25-.153 0-.219 1.272-1.514 1.487-1.514a.183.183 0 0 0 .179-.184c0-.101.525-.693 1.167-1.316s1.167-1.215 1.167-1.316.076-.184.17-.184c.219 0 2.273-2.029 2.279-2.25.003-.092.184-.257.403-.369.444-.225 2.148-1.994 2.148-2.23 0-.083.125-.151.277-.151s.232-.046.175-.103.362-.591.931-1.187c1.427-1.496 1.622-1.686 2.639-2.57 1.697-1.475 1.976-1.753 1.87-1.859-.059-.058.018-.154.17-.213.375-.143 1.338-1.056 1.23-1.165-.083-.083 2.63-2.903 2.793-2.903.183 0 .748-.592.748-.784 0-.251-.251-.308-2.417-.546-.916-.1-1.966-.222-2.333-.27-6.87-.901-17.263-1.168-25.185-.646m44.224 4.941c-.146.214-1.021 1.174-1.944 2.135s-1.678 1.76-1.678 1.776c0 .061-1.477 1.516-2.707 2.668-.7.655-1.227 1.237-1.172 1.292s.016.101-.087.101-.547.388-.986.862c-.439.475-1.173 1.254-1.632 1.731a155 155 0 0 0-1.916 2.047c-.596.649-1.145 1.183-1.221 1.186-.194.01-.529.373-.658.715-.061.161-.226.292-.366.292s-.255.06-.255.134c0 .073-1.013 1.152-2.25 2.398-1.238 1.245-2.25 2.338-2.25 2.428s-.262.342-.583.56-.582.462-.583.541c0 .08-.226.401-.501.714-.275.314-.5.512-.5.441s-.187.073-.417.32-.416.528-.416.623c0 .096-.057.176-.125.179-.203.008-2.831 2.527-3.288 3.153-.232.315-.421.511-.421.435s-.337.223-.75.666c-.412.443-.75.85-.75.903s-.75.806-1.667 1.672c-.917.867-1.71 1.709-1.761 1.871-.052.162-.173.295-.269.295-.266 0-4.803 4.708-4.803 4.983 0 .132-.045.194-.101.139-.087-.087-2.232 1.965-2.232 2.135 0 .145-1.842 1.846-1.917 1.771-.046-.046-.083.001-.083.105 0 .103-.338.535-.75.96s-.75.839-.75.923c0 .083-.094.151-.208.152-.314.001-4.292 4.087-4.292 4.407 0 .153-.064.239-.142.191-.181-.112-.868.669-.719.817.061.062.02.087-.091.056-.227-.062-6.381 6.107-6.381 6.397 0 .103-.042.145-.094.093-.051-.051-.445.287-.875.752a85 85 0 0 1-1.987 2.04c-.664.657-1.158 1.244-1.098 1.304s.033.109-.061.109c-.243 0-2.385 2.069-2.385 2.304 0 .108-.059.196-.13.196s-.615.49-1.208 1.09c-.594.6-1.581 1.589-2.194 2.199s-1.07 1.188-1.015 1.285.039.121-.035.053c-.074-.067-.344.12-.6.417-.256.296-2.569 2.67-5.142 5.275-2.572 2.605-4.676 4.848-4.676 4.986s-.042.209-.092.159c-.05-.051-.537.349-1.081.888-.545.54-1.066.981-1.159.981s-.168.067-.168.15-.844 1.01-1.875 2.062c-1.032 1.053-3.863 3.96-6.292 6.461a3856 3856 0 0 1-6.208 6.382c-.986 1.009-1.792 1.849-1.792 1.868 0 .018-.344.377-.764.798-.421.42-.72.837-.665.926s-.032.204-.194.256c-.388.124-2.291 1.932-2.428 2.307-.058.161-.178.274-.265.25-.185-.051-4.517 4.327-4.517 4.565 0 .089-.075.115-.167.058-.092-.056-.167-.004-.167.117s-.156.317-.347.437c-.192.12-.307.321-.257.451.112.292-.168.492-.287.205-.053-.128-.131-.064-.2.165-.063.207-.221.375-.353.375s-.366.225-.522.499c-.156.275-.382.5-.502.5-.12.001-.172.076-.115.168s-.002.167-.131.167c-.292 0-.826.571-.675.722.061.061.005.111-.126.111-.25 0-.75.651-.683.887.022.076-.036.091-.129.034-.092-.058-.387.143-.654.446-.267.302-1.281 1.353-2.252 2.334-.972.982-1.767 1.863-1.767 1.959 0 .095-.093.174-.208.175s-.546.383-.958.848c-1.249 1.41-4.321 4.484-4.481 4.484-.164 0-.424.5-.375.72.017.076-.031.1-.106.054s-1.558 1.382-3.296 3.175a1929 1929 0 0 1-9.967 10.224A4687 4687 0 0 0 95 167.98a3090 3090 0 0 1-7.75 7.927c-4.532 4.607-7.25 7.516-7.25 7.761 0 .091-.094.166-.208.168-.115.001-1.066.858-2.113 1.905l-1.905 1.903.203.678c.112.373.265.678.34.678s.125.169.109.375c-.05.672 1.484 5.074 2.507 7.192.129.266.234.554.234.64s.213.618.474 1.183c.262.565.645 1.514.853 2.11.645 1.851 2.347 5.364 2.648 5.464.253.084 1.413-1.026 2.047-1.962.309-.454.623-.829.698-.831.169-.005.613-.438.613-.598 0-.191.804-.88.906-.778.052.052.094-.031.094-.184s.084-.278.186-.278 1.021-.85 2.042-1.888c2.733-2.783 3.435-3.56 3.32-3.675-.057-.057-.012-.103.101-.103.112 0 .158-.075.101-.167s.005-.167.137-.167c.133 0 .282-.157.332-.35s.172-.3.27-.24c.098.061.178.026.178-.076 0-.103.075-.14.166-.084s.167-.051.167-.24.096-.343.213-.343.322-.15.454-.333.34-.334.463-.334.177-.075.12-.166-.03-.167.058-.167c.236 0 1.688-1.449 1.57-1.566-.055-.056.007-.101.139-.101s.875-.683 1.653-1.519c.777-.835 1.657-1.763 1.955-2.061s.542-.588.542-.643 2.381-2.493 5.291-5.417c8.657-8.696 10.461-10.554 10.413-10.723-.025-.089.019-.121.099-.072.159.098 1.287-1.069 1.231-1.273-.019-.069.022-.107.091-.085.068.023.537-.385 1.041-.906 1.162-1.201 1.334-1.411 1.334-1.637 0-.101.066-.142.148-.092.192.119 1.377-1.23 1.254-1.428-.052-.084-.032-.131.044-.106.075.025.169-.029.208-.121.116-.27.474-.583.667-.583.098 0 .179-.087.179-.192 0-.214 1.379-1.565 1.859-1.822.169-.091.307-.275.307-.409s.113-.244.25-.244c.138 0 .25-.12.25-.266s.148-.304.328-.351a.68.68 0 0 0 .428-.401c.055-.173.177-.315.27-.315.248 0 1.959-1.794 1.832-1.921-.059-.059-.007-.082.116-.052s.311-.087.417-.263c.296-.488.738-.914.842-.81.051.051.144-.04.206-.202.063-.163.796-.978 1.629-1.811.834-.834 1.489-1.543 1.457-1.577-.094-.097.623-.864.808-.864.092 0 .149-.062.126-.136-.051-.166 2.003-2.198 2.221-2.198.084 0 .154-.099.154-.222 0-.122.187-.321.415-.444.495-.265 2.585-2.417 2.585-2.663 0-.094.065-.152.145-.129.248.071 1.632-1.46 1.551-1.716-.041-.133-.019-.19.05-.126.131.122 2.087-1.809 2.087-2.061 0-.198 1.814-1.972 2.016-1.972.172 0 5.984-5.723 5.984-5.893 0-.055.262-.371.583-.702s.584-.669.584-.753.095-.152.213-.152.338-.131.491-.292c.154-.16.354-.366.445-.458l1.319-1.333a48 48 0 0 1 1.383-1.365c.319-.273 2.799-2.851 5.399-5.612 1.191-1.265 2.61-2.726 3.153-3.245 1.666-1.595 2.577-2.52 5.374-5.455a391 391 0 0 1 5.958-6.075c1.865-1.857 3.228-3.341 3.182-3.465-.044-.12-.025-.184.043-.143.162.098.55-.325.419-.456-.056-.056.005-.101.135-.101.226 0 2.052-1.826 1.839-1.84-.057-.004.105-.12.36-.258s.419-.323.365-.41-.012-.159.092-.159c.248 0 1.329-1.112 1.203-1.237-.052-.053-.019-.096.075-.096.093 0 .349-.177.569-.393.417-.411 5.247-5.377 7.494-7.706.716-.742 1.5-1.48 1.743-1.639s.414-.316.38-.35 1.291-1.442 2.944-3.129c3.376-3.445 3.769-3.88 3.63-4.019-.053-.053-.006-.097.105-.097s.389-.188.618-.417c.23-.229.365-.417.301-.417-.125 0 .318-.407.997-.917.23-.172.38-.374.334-.448s-.005-.135.09-.135c.213 0 1.847-1.632 1.847-1.845 0-.085.096-.155.213-.155s.323-.161.458-.357c.135-.197 1.054-1.191 2.042-2.209 3.059-3.149 3.287-3.396 3.287-3.556 0-.085.185-.254.411-.375s.375-.278.331-.348c-.044-.071.147-.291.425-.488.595-.424 3.031-2.848 4.333-4.312.504-.567 3.003-3.127 5.554-5.689 2.55-2.562 4.589-4.735 4.531-4.828-.058-.094-.04-.171.04-.171.079 0 .29-.118.468-.262s.23-.215.115-.157-.208.062-.208.008c0-.053.195-.171.433-.262.284-.108.401-.25.339-.413-.058-.149.001-.247.148-.247.134 0 .473-.244.753-.542s1.199-1.247 2.043-2.11 1.534-1.65 1.534-1.75.089-.182.199-.182c.196 0 1.008-.814 3.262-3.27 2.032-2.215 2.296-2.48 2.47-2.48.094 0 .125-.075.069-.166-.057-.092-.022-.167.078-.167.213 0 1.838-1.641 1.838-1.855 0-.08.081-.145.179-.145s.529-.389.958-.865c.429-.475.949-1.014 1.155-1.196.206-.183.375-.444.375-.58s.041-.207.092-.156c.092.092 1.822-1.51 1.827-1.691.002-.052.73-.817 1.618-1.7.888-.882 1.568-1.651 1.511-1.708s.004-.104.136-.104c.284 0 4.024-3.85 4.128-4.25.024-.092.207-.258.407-.369.201-.111.266-.205.146-.208s-.177-.073-.127-.153c.108-.175-1.399-.853-1.894-.853-.189 0-.344-.072-.344-.159s-.263-.209-.583-.269c-.321-.06-.584-.164-.584-.231 0-.164-.56-.41-2.916-1.282-1.1-.407-2.225-.843-2.5-.969-.765-.351-7.025-2.394-7.603-2.481a1.3 1.3 0 0 1-.399-.141c-.559-.35-1.364-.321-1.626.06m29.396 13.716c-.56.58-1.018 1.105-1.018 1.166 0 .088-1.386 1.475-2.054 2.054-.218.19-3.215 3.369-3.175 3.369.02 0-1.871 1.926-4.201 4.281s-4.237 4.38-4.237 4.5-.059.219-.132.219c-.072 0-1.553 1.432-3.291 3.183a399 399 0 0 1-3.869 3.861c-.39.373-.678.708-.641.745s-.262.371-.664.742c-.403.371-.684.752-.625.847.06.098.026.124-.078.059-.103-.064-.279.067-.4.299-.119.227-.292.404-.383.393s-.326.214-.521.502c-.195.287-.401.475-.458.418-.058-.058-.105.02-.105.173s-.112.278-.25.278c-.137 0-.25.125-.25.278s-.045.232-.101.176c-.143-.142-1.41 1.06-1.301 1.235.049.08.004.144-.1.144-.103 0-.689.536-1.301 1.191s-1.35 1.437-1.64 1.738-.483.589-.43.642.001.096-.115.096-.665.469-1.221 1.042c-.555.573-2.292 2.355-3.858 3.961-6.134 6.284-7.942 8.164-7.855 8.164.049 0-.202.264-.56.587-.357.322-1.314 1.276-2.125 2.118-.812.842-1.926 1.99-2.476 2.551-11.745 11.984-11.583 11.816-11.583 12.049 0 .107-.117.195-.26.195s-.214.075-.157.166.022.167-.077.167-.572.406-1.052.901a295 295 0 0 1-4.156 4.22 151 151 0 0 0-2.442 2.5c-.766.804-2.866 2.965-4.667 4.803-1.8 1.837-5.328 5.457-7.84 8.044a3552 3552 0 0 1-10.001 10.243 1624 1624 0 0 0-6.682 6.842c-.687.717-2.45 2.533-3.916 4.035a584 584 0 0 0-6.26 6.504c-.27.279-.49.603-.49.718s-.062.172-.137.125c-.19-.117-4.391 4.149-4.237 4.302.068.068.043.099-.055.069-.252-.079-1.914 1.544-1.789 1.746.056.091.029.121-.06.066-.17-.105-.722.437-.722.709 0 .086-.258.353-.574.593q-.575.438-.471.703.099.262-.091.146c-.113-.07-.418.135-.737.494-.299.337-.713.767-.919.955s-.375.441-.375.562-.096.22-.213.22-.322.15-.454.333-.348.334-.481.334c-.132 0-.2.041-.15.091s-.547.706-1.326 1.458c-1.738 1.677-1.315 1.248-4.293 4.36-1.375 1.436-4 4.141-5.833 6.009-5.894 6.007-7.092 7.268-7.531 7.931-.236.358-.499.651-.584.651-.184 0-4.208 4.037-7.234 7.259l-2.875 3.059c-.381.405-.693.811-.693.903s-.041.126-.091.076c-.15-.15-1.409 1.067-1.295 1.252.057.093.03.123-.06.067-.208-.129-4.49 4.335-4.415 4.602.031.109.001.143-.066.076-.126-.125-1.573 1.222-1.573 1.464 0 .075-.374.497-.832.939s-.777.807-.709.813-.046.079-.254.163a1.1 1.1 0 0 0-.531.531c-.084.208-.157.32-.163.248s-.329.185-.719.572-.69.764-.667.839-.032.137-.123.137c-.211 0-.835.531-.835.71 0 .075-.3.422-.667.771-.366.348-.666.728-.666.844 0 .118-.11.168-.248.115-.137-.052-.24-.041-.231.024.05.33-.039.544-.188.452-.092-.056-.167-.028-.167.063s-.37.545-.822 1.01c-.453.464-.771.844-.709.845s-.098.141-.357.312c-.26.172-.466.377-.459.458.008.08-.044.146-.115.146s-.31.168-.531.375c-.222.206-.464.375-.538.375s-.135.112-.135.25c0 .137-.067.25-.149.25-.273 0-1.212.988-1.104 1.162.058.094-.006.171-.143.171s-.296.15-.354.333c-.059.184-.164.334-.234.334-.199 0-1.516 1.298-1.516 1.493 0 .095-.101.173-.224.173-.331 0-1.61 1.351-1.61 1.7 0 .165.08.3.177.3s.13.075.073.167c-.056.092-.028.167.063.167.09 0 .212.149.27.332s.195.427.304.542.492.696.852 1.292c.568.938 1.426 2.183 1.901 2.759.08.097.362.509.626.917.265.407.52.778.567.824s.531.684 1.076 1.417 1.069 1.42 1.166 1.527.588.739 1.092 1.406a41 41 0 0 0 1.513 1.89c.327.372.703.836.833 1.03.257.382 2.07 2.416 3.837 4.305.604.646 1.571 1.7 2.148 2.342s1.32 1.42 1.651 1.729 1.239 1.172 2.018 1.917c1.479 1.415 3.941 3.653 5.083 4.622.367.31.704.606.75.655s.796.664 1.667 1.365c.871.7 1.771 1.45 2 1.666.335.317 1.611 1.304 2.583 1.999.092.065.439.346.772.625.333.278.683.505.778.505s.198.057.228.125c.031.069.356.328.722.576.367.248 1.548 1.073 2.625 1.834 2.808 1.982 7.825 5.128 8.183 5.131.077.001.34.141.583.312 1.441 1.011 8.061 4.426 11.026 5.688 1.329.566 2.967 1.285 3.64 1.598s1.273.57 1.333.57c.061.001.673.231 1.36.512 2.18.891 5.052 1.94 6.339 2.315.685.199 1.92.577 2.745.839s1.95.605 2.5.761 1.421.417 1.936.579 2.165.569 3.666.905c1.502.337 3.518.79 4.481 1.008 11.545 2.618 28.445 3.315 39.833 1.643 1.513-.222 3.05-.44 3.417-.484 3.407-.413 9.57-1.671 13.75-2.807 7.295-1.983 12.505-3.786 17.417-6.027.733-.334 1.461-.634 1.618-.665s1.077-.403 2.045-.824c1.549-.675 2.958-1.393 7.39-3.768l2.53-1.355c2.535-1.356 6.832-3.936 7.417-4.453.183-.162 1.372-.982 2.642-1.823 2.285-1.514 4.703-3.244 5.024-3.596.092-.1.504-.44.917-.755 1.107-.846 4.39-3.535 4.583-3.753.092-.104.579-.524 1.084-.933.504-.41 1.138-.93 1.409-1.157 1.803-1.508 9.552-9.299 11.104-11.162.572-.688 1.692-2 2.488-2.917 1.959-2.255 7.574-9.761 7.58-10.131.001-.072.083-.185.182-.25.389-.256 4.737-6.966 4.737-7.309 0-.036.716-1.305 1.592-2.821 1.499-2.595 4.408-8.399 4.408-8.796 0-.057.294-.724.654-1.482.623-1.311.852-1.86 2.362-5.675.608-1.535 2.122-5.906 2.235-6.453.029-.137.436-1.403.906-2.812.885-2.658 1.526-4.944 1.829-6.521.096-.504.407-2.004.689-3.333 1.486-6.99 2.187-11.556 2.407-15.667.052-.963.181-2.725.288-3.917.576-6.427-.002-19.463-1.136-25.665-.379-2.07-.584-3.282-.665-3.918-.33-2.606-1.568-8.082-2.656-11.75-.326-1.1-.612-2.075-.636-2.167a3.4 3.4 0 0 0-.25-.541c-.113-.207-.172-.375-.131-.375.303 0-1.734-6.179-2.83-8.584-.25-.55-.482-1.145-.515-1.322-.115-.631-.781-1.761-1.039-1.764-.157-.001-.193-.051-.09-.125.277-.196.177-.537-.606-2.062-.266-.517-.483-1.052-.483-1.188 0-.501-2.602-5.955-2.841-5.955-.087 0-.147-.057-.132-.125.047-.22-.372-1.114-.684-1.459-.166-.183-.389-.606-.496-.94a3.7 3.7 0 0 0-.604-1.084c-.225-.261-.409-.602-.409-.757-.001-.156-.069-.324-.152-.376s-.419-.643-.746-1.314c-.328-.672-.767-1.478-.977-1.792a49 49 0 0 1-1.115-1.82c-.403-.687-.777-1.288-.83-1.333-.054-.046-.241-.346-.417-.667a9 9 0 0 0-.667-1.027c-.776-.992-.93-1.213-.93-1.34 0-.105-.85-1.352-1.625-2.383a6 6 0 0 1-.359-.621c-.129-.249-.485-.727-.792-1.062-.306-.335-.557-.674-.557-.755s-.075-.145-.167-.145-.149-.057-.127-.125c.034-.107-1.356-2.079-2.113-2.997-.134-.162-.779-.97-1.433-1.795s-1.406-1.725-1.67-2-1.213-1.363-2.108-2.417c-1.775-2.09-9.791-10.191-11.132-11.25a27 27 0 0 1-1.287-1.079c-.64-.595-.937-.837-1.025-.837-.099 0-.745-.55-1.824-1.555a28 28 0 0 0-1.436-1.25c-.314-.245-.952-.748-1.417-1.119-1.385-1.104-3.156-2.384-5.614-4.058-.86-.587-1.864-1.305-2.231-1.597-.758-.605-4.426-2.87-5-3.088-.328-.125-.517-.001-1.398.911" fill="#0bf993"/>
    <path d="M192.583 19.113c-1.81.09-7.49.58-7.613.656-.067.041-1.306.225-2.754.409-6.925.879-16.418 2.955-20.466 4.475-.275.103-1.85.628-3.5 1.166-3.058.996-7.963 2.861-9.167 3.485-.366.19-1.566.748-2.666 1.241-3.421 1.533-10.421 5.238-13.168 6.969-2.935 1.85-6.891 4.484-7.975 5.311-.655.499-2.091 1.58-3.191 2.401a87 87 0 0 0-3.583 2.844c-.871.742-2.071 1.759-2.667 2.26-4.949 4.158-12.484 11.797-16.033 16.253-.584.734-1.513 1.896-2.064 2.584-6.269 7.819-13.147 19.26-17.233 28.666-10.042 23.12-13.264 46.481-9.734 70.584.731 4.994.794 5.25 1.293 5.25.392 0 .474-.08 4.921-4.824a266 266 0 0 1 4.184-4.343 1433 1433 0 0 0 7.083-7.25c2.75-2.831 5.976-6.126 7.17-7.324 2.801-2.809 9.869-10.034 15.997-16.348 5.607-5.779 7.718-7.936 14.043-14.348 2.543-2.577 6.686-6.81 9.207-9.406a982 982 0 0 1 7.004-7.147c2.84-2.847 11.4-11.567 14.746-15.019 2.384-2.461 3.874-3.995 13.509-13.908 3.029-3.117 6.311-6.51 7.294-7.54a912 912 0 0 1 5.822-6c2.22-2.27 5.349-5.477 6.955-7.127 18.434-18.938 23.045-23.583 23.41-23.583.147 0 .333-.169.412-.375s.414-.775.743-1.263c.33-.488.536-.863.458-.833-.15.058-1.977 1.647-2.578 2.243-1.334 1.32-2.41 2.537-2.323 2.625.057.057-.022.103-.175.103-.152 0-.277.068-.277.151 0 .236-1.704 2.005-2.148 2.23-.219.112-.4.277-.403.369-.006.221-2.06 2.25-2.279 2.25-.094 0-.17.083-.17.184s-.525.693-1.167 1.316-1.167 1.215-1.167 1.316a.183.183 0 0 1-.179.184c-.215 0-1.487 1.295-1.487 1.514 0 .084-.113.153-.25.153a.256.256 0 0 0-.25.26c0 .142-.075.213-.167.156s-.167.06-.167.258c0 .251-.075.332-.248.266-.136-.052-.23-.034-.208.041.022.074-.429.6-1.002 1.167s-1.042 1.102-1.042 1.188-.243.28-.541.432c-.298.153-.655.418-.792.59-.138.172-.531.618-.875.991s-.625.747-.625.831-.113.153-.25.153c-.138 0-.234.056-.214.125.053.187-1.612 1.875-1.85 1.875-.113 0-.161.073-.105.162.055.089-.062.296-.259.459-.874.721-1.655 1.536-1.655 1.727 0 .114-.047.161-.104.104-.105-.106-.563.272-.563.465 0 .118-2.314 2.416-2.432 2.416-.16 0-1.187 1.159-1.103 1.243.05.05.007.091-.095.091-.246 0-1.037.739-1.037.969 0 .099-.131.257-.291.351-.161.093-.23.172-.155.175.208.007-.335.505-.552.505-.103 0-.15.061-.103.137.046.075-.43.632-1.058 1.237s-1.1 1.144-1.047 1.197c.052.052-.086.096-.308.098-.321.002-.352.035-.152.164.142.092.166.163.055.164-.106.002-.402.223-.656.493-.255.269-.535.445-.624.391-.088-.055-.113-.023-.055.071.124.201-.446.766-.609.604-.061-.062-.111.013-.111.166s-.075.278-.167.278-.167.117-.167.26c0 .142-.075.213-.166.156s-.167-.013-.167.097c0 .271-2.861 3.146-3.135 3.15-.12.002-.175.073-.122.159.12.195-5.804 6.228-5.961 6.07-.064-.063-.115.01-.115.163s-.063.278-.139.278-.239.188-.361.417c-.123.229-.296.416-.384.416-.193 0-.783.655-.783.869 0 .083-.077.104-.171.045s-.15-.043-.125.032c.057.172-.742.986-.912.929-.069-.023-.125.076-.125.219 0 .142-.077.212-.171.154s-.15-.036-.125.049c.062.209-4.373 4.87-4.635 4.87-.114 0-.236.082-.269.183-.088.263-1.999 2.276-8.489 8.942-.825.848-1.57 1.542-1.656 1.542s-.155.075-.155.166-.094.167-.209.168-.336.226-.492.5-.404.499-.551.499-.222.075-.165.167c.057.091-.009.166-.146.166s-.296.15-.354.334c-.058.183-.218.333-.354.333-.137 0-.203.075-.146.167.057.091.011.166-.101.166-.113 0-.159.046-.104.101s-.462.674-1.15 1.375-2.388 2.456-3.778 3.899-2.627 2.625-2.749 2.625-.175.075-.118.167-.018.167-.167.167c-.148 0-.223.075-.166.166s.026.167-.068.167c-.192 0-2.849 2.71-3.08 3.141-.082.152-2.482 2.63-5.334 5.507a1099 1099 0 0 0-9.542 9.707c-1.613 1.657-2.334 2.312-2.547 2.312-.086 0-.203.144-.259.32s-.398.589-.761.917-.617.596-.565.596-.016.112-.154.25c-.137.137-.343.25-.456.25-.114 0-.161.045-.106.101.056.055-1.014 1.236-2.377 2.625a264 264 0 0 0-2.906 2.991c-.236.257-.429.42-.429.363s-.112.009-.25.146c-.137.138-.25.325-.25.418s-.15.214-.333.273c-.183.058-.333.192-.333.299 0 .202-1.326 1.45-1.542 1.45-.069.001-.125.075-.125.165 0 .254-.548.836-.787.836-.117 0-.213.1-.213.223s-.281.493-.625.823-1.405 1.43-2.359 2.444c-.953 1.013-1.834 1.843-1.958 1.843s-.206.067-.183.149-1.308 1.506-2.958 3.165c-1.65 1.658-3.374 3.422-3.831 3.92s-.877.876-.933.841-.201.12-.321.345-.358.452-.528.506-.271.158-.226.232-.451.65-1.104 1.28-1.346 1.325-1.539 1.544-.645.669-1.004 1c-.36.331-.804.77-.989.976-.184.207-.434.375-.555.375s-.22.117-.22.26-.057.226-.125.184c-.069-.041-.222.029-.34.157q-.213.232-.029.233c.102 0-.037.187-.309.416-.273.229-.583.417-.69.417s-.15.071-.097.157c.115.186-6.13 6.51-6.428 6.51-.113 0-.16.045-.105.1.108.107-.947 1.23-1.163 1.238-.189.008-1.048.787-1.048.95 0 .076-.131.255-.291.399a3.8 3.8 0 0 0-.542.644c-.599.918-4.186 4.669-4.465 4.669-.122 0-.169.084-.105.188.07.113.026.158-.111.112-.252-.084-.325-.366-.807-3.134-.636-3.65-.98-6.862-1.104-10.319-.035-.954-.108-2.004-.164-2.333-.347-2.042-.462-10.957-.162-12.514.044-.229.194-2.33.334-4.667.287-4.821.584-7.495 1.165-10.5.222-1.146.533-2.833.691-3.75.159-.917.306-1.742.327-1.833l.565-2.5c.48-2.129 1.714-6.812 1.954-7.417.054-.138.119-.35.144-.471.025-.122.101-.347.169-.5s.139-.335.159-.404a.7.7 0 0 1 .067-.167c.018-.023.061-.26.096-.526.035-.267.123-.529.197-.584.073-.054.156-.248.183-.431.027-.184.095-.446.15-.584s.129-.4.164-.583c.034-.183.131-.357.215-.386s.111-.16.061-.291c-.051-.132-.016-.24.078-.24.093 0 .223-.316.288-.702.066-.386.181-.817.256-.958s.26-.651.41-1.134.364-.97.475-1.083.306-.469.434-.789c.129-.321.277-.621.329-.667.155-.134.53-1.55.52-1.958-.005-.207.06-.375.144-.375.126 0 .298-.331.432-.834.013-.046.183-.421.38-.833.196-.413.359-.849.361-.97s.109-.326.238-.456c.135-.134.195-.39.141-.597-.071-.272-.04-.328.126-.226.16.099.193.062.117-.136a.52.52 0 0 1 .097-.489c.11-.12.225-.328.255-.463.087-.399 1.069-2.388 1.336-2.705.135-.16.196-.291.136-.291s.046-.156.237-.347c.19-.19.305-.452.255-.583s-.014-.237.08-.237c.095 0 .125-.076.068-.168s.018-.214.166-.271.23-.211.179-.341c-.051-.133-.017-.192.076-.134.092.056.213-.127.269-.408s.18-.511.276-.511c.095 0 .13-.044.076-.098-.053-.053.045-.239.219-.412.173-.174.272-.43.219-.568-.056-.146.015-.296.169-.355.147-.056.235-.154.196-.217-.114-.183.431-1.188.59-1.089.08.049.104-.017.054-.148-.05-.13.007-.34.127-.467.12-.126.518-.819.885-1.538.366-.72.816-1.479 1-1.686.183-.208.358-.481.388-.607a.6.6 0 0 1 .223-.332c.092-.057.168-.171.17-.252.001-.081.07-.129.152-.106.083.023.159-.052.169-.167l.042-.458c.012-.137.11-.25.217-.25a.52.52 0 0 0 .333-.152c.081-.088.052-.102-.069-.032-.115.066-.209.05-.209-.036 0-.2.499-.62.505-.426.003.08.082.014.176-.147s.117-.38.051-.487c-.082-.133-.025-.157.181-.078.24.092.263.069.114-.11-.145-.175-.067-.348.344-.769.292-.298.549-.666.571-.817s.119-.3.216-.332.176-.131.176-.218c0-.187.692-1.204.875-1.285.068-.031.125-.138.125-.238 0-.101.264-.425.587-.721.388-.355.515-.568.375-.624-.132-.053-.102-.09.079-.099.263-.011.368-.199.312-.554-.011-.069.097-.125.24-.125s.22-.065.17-.145.059-.278.241-.442c.181-.164.329-.391.329-.505s.117-.251.261-.306c.143-.055.217-.17.164-.256s.06-.205.252-.266c.191-.061.308-.151.258-.201-.161-.161.243-.725.435-.607.122.076.15.019.08-.162-.058-.152-.034-.277.055-.277s.162-.112.162-.249c0-.136.15-.342.333-.456.183-.115.333-.307.333-.428s.077-.173.171-.114.16.043.147-.032c-.059-.341.033-.551.224-.513.125.025.185-.091.151-.291-.032-.184-.009-.285.052-.226.117.115.922-.618.922-.839 0-.074.15-.269.333-.435s.334-.362.334-.435.168-.307.375-.519a9 9 0 0 0 .698-.831c.178-.245.385-.408.459-.362s.134-.026.134-.159.124-.289.274-.347.233-.146.183-.196.155-.367.456-.705.945-1.063 1.43-1.613c.486-.55 1.064-1.122 1.284-1.271s.376-.323.345-.388c-.03-.065.133-.222.362-.349s.36-.233.291-.236c-.068-.003.007-.144.167-.313s.348-.277.417-.24c.068.037.125-.01.125-.103 0-.269.699-.85.884-.735.095.059.115.02.047-.091-.14-.227.302-.729.492-.558.072.065.085.037.029-.06-.055-.098.694-.961 1.665-1.917s1.706-1.634 1.632-1.505q-.135.235.058.115c.106-.065.193-.19.193-.278s.226-.365.503-.615c.277-.251.787-.719 1.134-1.039.346-.321.914-.809 1.263-1.084s.835-.687 1.082-.916c.246-.229.857-.768 1.358-1.198.5-.43 1.135-.979 1.41-1.222.275-.242.907-.747 1.406-1.122.498-.374 1.044-.8 1.213-.945s.343-.245.386-.222.356-.221.696-.542c.34-.32.688-.583.773-.583s.239-.104.341-.231c.154-.194.689-.612 2.851-2.227l.781-.583c.338-.252.731-.459.875-.459.143 0 .261-.062.261-.139 0-.161 1.7-1.361 1.929-1.361.085 0 .372-.187.639-.417.266-.229.542-.416.613-.416s.58-.3 1.132-.667c.552-.366 1.049-.666 1.104-.666s.637-.35 1.292-.778c.656-.428 1.289-.778 1.408-.778s.216-.057.216-.127c0-.069.207-.233.459-.363s.889-.477 1.416-.771.96-.474.961-.4.058.051.125-.051c.26-.389 7.42-3.899 7.956-3.899.122 0 .247-.06.278-.134.03-.074.843-.457 1.805-.852.963-.395 1.938-.813 2.167-.93.509-.26 2.618-1.103 2.888-1.155.107-.02.464-.153.792-.296.329-.143 1.566-.571 2.75-.953s2.303-.76 2.487-.841c.985-.436 6.321-1.891 9.5-2.591 1.008-.222 2.683-.594 3.723-.826 11.427-2.555 28.867-3.193 41.61-1.522.367.048 1.417.17 2.333.27 2.166.238 2.417.295 2.417.546 0 .192-.565.784-.748.784-.2 0-2.876 2.84-2.75 2.918.355.219 4.331-3.279 4.331-3.811 0-.411-.884-.577-8.083-1.511-3.762-.488-15.208-.756-20.667-.483m29.097 4.361c-.133.249-.071.377.321.667.622.46.666.453.666-.108 0-.793-.661-1.167-.987-.559m12.012 1.484c-1.341 1.345-10.744 11.063-13.104 13.542-.916.962-3.28 3.4-5.253 5.417-9.489 9.7-15.946 16.33-16.215 16.648-.294.348-1.592 1.688-7.277 7.519-1.61 1.651-4.569 4.688-6.576 6.75-2.008 2.062-5.115 5.249-6.905 7.083a2060 2060 0 0 0-5.6 5.755l-4.766 4.916a6929 6929 0 0 1-18.246 18.677c-2.496 2.532-5.484 5.599-11.667 11.976a876 876 0 0 1-7.178 7.33c-1.289 1.29-5.299 5.383-8.91 9.096-10.315 10.605-12.119 12.455-16.831 17.25a3369 3369 0 0 0-10.494 10.75c-9.16 9.425-11.417 11.739-15.463 15.848-2.043 2.076-3.715 3.908-3.725 4.084-.042.717.061 1.226.551 2.734 1.235 3.803 4.299 11.461 5.852 14.625.999 2.035 1.338 2.193 2.225 1.039.745-.969 5.583-6.045 10.799-11.33 4.062-4.116 11.426-11.662 19.838-20.329 3.09-3.183 7.231-7.432 13.325-13.671 1.924-1.971 4.589-4.709 5.922-6.084 6.656-6.871 23.533-24.097 27.179-27.743a609 609 0 0 0 6.084-6.251c2.288-2.38 6.487-6.692 9.331-9.583a1553 1553 0 0 0 7.826-8.006c1.46-1.513 4.574-4.7 6.92-7.083s6.396-6.546 8.999-9.25c4.732-4.914 6.974-7.225 12.942-13.334a447 447 0 0 0 4.817-5c.904-.962 2.439-2.537 3.411-3.5.973-.962 6.07-6.212 11.328-11.666 10.413-10.801 14.226-14.71 18.627-19.091 3.505-3.489 3.456-3.229.792-4.218a95 95 0 0 1-3.142-1.256c-3.247-1.368-13.243-4.769-14.018-4.769-.153 0-.782.507-1.398 1.125m2.723-.323c.093.058.272.121.399.141.578.087 6.838 2.13 7.603 2.481.275.126 1.4.562 2.5.969 2.356.872 2.916 1.118 2.916 1.282 0 .067.263.171.584.231s.583.181.583.269c0 .087.155.159.344.159.495 0 2.002.678 1.894.853-.05.08.007.149.127.153.12.003.055.097-.146.208s-.383.277-.407.369c-.104.4-3.844 4.25-4.128 4.25-.132 0-.193.047-.136.104s-.623.826-1.511 1.708c-.888.883-1.616 1.648-1.618 1.7-.005.181-1.735 1.783-1.827 1.691-.051-.051-.092.02-.092.156s-.169.397-.375.58-.726.721-1.155 1.196c-.429.476-.86.865-.958.865s-.179.065-.179.145c0 .214-1.625 1.855-1.838 1.855-.1 0-.135.075-.078.167.056.091.025.166-.069.166-.174 0-.438.265-2.47 2.48-2.254 2.456-3.066 3.27-3.262 3.27-.11 0-.199.082-.199.182s-.69.887-1.534 1.75-1.763 1.812-2.043 2.11-.619.542-.753.542c-.147 0-.206.098-.148.247.062.163-.055.305-.339.413-.238.091-.433.209-.433.262s.093.05.208-.008.063.012-.115.157c-.178.144-.389.262-.468.262s-.098.077-.04.171c.058.093-1.981 2.266-4.531 4.828-2.551 2.562-5.05 5.122-5.554 5.689-1.302 1.464-3.738 3.888-4.333 4.312-.278.197-.469.417-.425.488.044.07-.105.227-.331.348s-.411.29-.411.375c0 .16-.228.407-3.287 3.556-.988 1.018-1.907 2.012-2.042 2.209-.135.196-.341.357-.458.357s-.213.07-.213.155c0 .213-1.634 1.845-1.847 1.845-.095 0-.136.061-.09.135s-.104.276-.334.448c-.679.51-1.122.917-.997.917.064 0-.071.188-.301.417s-.507.417-.618.417-.158.044-.105.097c.139.139-.254.574-3.63 4.019-1.653 1.687-2.978 3.095-2.944 3.129s-.137.191-.38.35-1.027.897-1.743 1.639a1473 1473 0 0 1-7.494 7.706c-.22.216-.476.393-.569.393-.094 0-.127.043-.075.096.126.125-.955 1.237-1.203 1.237-.104 0-.146.072-.092.159s-.11.272-.365.41-.417.254-.36.258c.213.014-1.613 1.84-1.839 1.84-.13 0-.191.045-.135.101.131.131-.257.554-.419.456-.068-.041-.087.023-.043.143.046.124-1.317 1.608-3.182 3.465a391 391 0 0 0-5.958 6.075c-2.797 2.935-3.708 3.86-5.374 5.455-.543.519-1.962 1.98-3.153 3.245-2.6 2.761-5.08 5.339-5.399 5.612-.127.109-.75.723-1.383 1.365l-1.319 1.333c-.091.092-.291.298-.445.458-.153.161-.374.292-.491.292-.118 0-.213.069-.213.152 0 .084-.263.423-.584.753-.321.331-.583.647-.583.702 0 .17-5.812 5.893-5.984 5.893-.202 0-2.016 1.774-2.016 1.972 0 .252-1.956 2.183-2.087 2.061-.069-.064-.091-.007-.05.126.081.256-1.303 1.787-1.551 1.716-.08-.023-.145.035-.145.129 0 .246-2.09 2.398-2.585 2.663-.228.123-.415.322-.415.444 0 .123-.07.222-.154.222-.218 0-2.272 2.032-2.221 2.198.023.074-.034.136-.126.136-.185 0-.902.767-.808.864.032.034-.623.743-1.457 1.577-.833.833-1.566 1.648-1.629 1.811-.062.162-.155.253-.206.202-.104-.104-.546.322-.842.81-.106.176-.294.294-.417.263s-.175-.007-.116.052c.127.127-1.584 1.921-1.832 1.921-.093 0-.215.142-.27.315a.68.68 0 0 1-.428.401c-.18.047-.328.205-.328.351s-.112.266-.25.266c-.137 0-.25.11-.25.244s-.138.318-.307.409c-.48.257-1.859 1.608-1.859 1.822 0 .105-.081.192-.179.192-.193 0-.551.313-.667.583-.039.092-.133.146-.208.121-.076-.025-.096.022-.044.106.123.198-1.062 1.547-1.254 1.428-.082-.05-.148-.009-.148.092 0 .226-.172.436-1.334 1.637-.504.521-.973.929-1.041.906-.069-.022-.11.016-.091.085.056.204-1.072 1.371-1.231 1.273-.08-.049-.124-.017-.099.072.048.169-1.756 2.027-10.413 10.723-2.91 2.924-5.291 5.361-5.291 5.417 0 .055-.244.345-.542.643s-1.178 1.226-1.955 2.061c-.778.836-1.521 1.519-1.653 1.519s-.194.045-.139.101c.118.117-1.334 1.566-1.57 1.566-.088 0-.115.075-.058.167.057.091.003.166-.12.166s-.331.15-.463.334c-.132.183-.337.333-.454.333s-.213.154-.213.343-.075.297-.167.24c-.091-.056-.166-.019-.166.084 0 .102-.08.137-.178.076-.098-.06-.219.047-.27.24-.05.193-.199.35-.332.35-.132 0-.194.075-.137.167s.011.167-.101.167c-.113 0-.158.046-.101.103.115.115-.587.892-3.32 3.675-1.021 1.038-1.94 1.888-2.042 1.888s-.186.125-.186.278-.042.236-.094.184c-.102-.102-.906.587-.906.778 0 .16-.444.593-.613.598-.075.002-.389.377-.698.831-.634.936-1.794 2.046-2.047 1.962-.301-.1-2.003-3.613-2.648-5.464a28 28 0 0 0-.853-2.11c-.261-.565-.474-1.097-.474-1.183s-.105-.374-.234-.64c-1.023-2.118-2.557-6.52-2.507-7.192.016-.206-.033-.375-.109-.375-.075 0-.228-.305-.34-.678l-.203-.678 1.905-1.903c1.047-1.047 1.998-1.904 2.113-1.905s.208-.077.208-.168c0-.245 2.718-3.154 7.25-7.761 1.467-1.491 4.954-5.058 7.75-7.927s6.595-6.757 8.442-8.64c4.063-4.143 5.845-5.97 9.967-10.224 1.738-1.793 3.221-3.222 3.296-3.175.075.046.123.022.106-.054-.049-.22.211-.72.375-.72.16 0 3.232-3.074 4.481-4.484.412-.465.843-.847.958-.848s.208-.08.208-.175c0-.096.795-.977 1.767-1.959.971-.981 1.985-2.032 2.252-2.334s.562-.504.654-.446c.093.057.151.042.129-.034-.067-.236.433-.887.683-.887.131 0 .187-.05.126-.111-.151-.151.383-.722.675-.722.129 0 .188-.075.131-.167s-.005-.167.115-.168c.12 0 .346-.225.502-.5.156-.274.391-.499.522-.499.132 0 .29-.168.353-.375.069-.229.147-.293.2-.165.119.287.399.087.287-.205-.05-.13.065-.331.257-.451.191-.12.347-.316.347-.437s.075-.173.167-.117c.092.057.167.031.167-.058 0-.238 4.332-4.616 4.517-4.565.087.024.207-.089.265-.25.137-.375 2.04-2.183 2.428-2.307.162-.052.249-.167.194-.256s.244-.506.665-.926c.42-.421.764-.78.764-.798s.806-.859 1.792-1.868c.985-1.008 3.779-3.88 6.208-6.382s5.26-5.408 6.292-6.461c1.031-1.052 1.875-1.98 1.875-2.062 0-.083.076-.15.168-.15s.614-.441 1.159-.981c.544-.539 1.031-.939 1.081-.888s.092-.021.092-.159 2.104-2.381 4.676-4.986 4.886-4.979 5.142-5.275.526-.484.6-.417c.074.068.09.044.035-.053s.402-.675 1.015-1.285 1.6-1.599 2.194-2.199 1.137-1.09 1.208-1.09.13-.088.13-.196c0-.235 2.142-2.304 2.385-2.304.094 0 .121-.049.061-.109s.434-.647 1.098-1.304a85 85 0 0 0 1.987-2.04c.43-.465.824-.803.875-.752s.094.01.094-.093c0-.29 6.154-6.459 6.381-6.397.111.031.152.006.091-.056-.149-.148.538-.929.719-.817.078.048.142-.038.142-.191 0-.32 3.978-4.406 4.292-4.407.114-.001.208-.069.208-.152 0-.084.338-.499.75-.923s.75-.857.75-.96c0-.104.037-.151.083-.105.075.075 1.917-1.626 1.917-1.771 0-.17 2.145-2.222 2.232-2.135.056.055.101-.007.101-.139 0-.275 4.537-4.983 4.803-4.983.096 0 .217-.133.269-.295.051-.162.844-1.004 1.761-1.871.917-.866 1.667-1.619 1.667-1.672s.338-.46.75-.903c.413-.443.75-.742.75-.666s.189-.12.421-.435c.457-.626 3.085-3.145 3.288-3.153.068-.003.125-.083.125-.179s.187-.376.416-.623c.23-.247.417-.391.417-.32s.225-.127.5-.441c.275-.313.501-.634.501-.714.001-.079.263-.323.583-.541.321-.218.583-.47.583-.56s1.012-1.183 2.25-2.428c1.237-1.246 2.25-2.325 2.25-2.398 0-.074.115-.134.255-.134s.305-.131.366-.292c.129-.342.464-.705.658-.715.076-.003.625-.537 1.221-1.186a155 155 0 0 1 1.916-2.047c.459-.477 1.193-1.256 1.632-1.731.439-.474.883-.862.986-.862s.143-.046.087-.101.472-.637 1.172-1.292c1.23-1.152 2.707-2.607 2.707-2.668 0-.016.755-.815 1.678-1.776s1.798-1.921 1.944-2.135c.262-.381 1.067-.41 1.626-.06m27.628 13.157a42 42 0 0 1-1.798 1.975c-.547.559-2.533 2.613-4.412 4.565a714 714 0 0 1-5.666 5.818c-2.416 2.438-4.422 4.503-11.346 11.683-2.431 2.521-5.879 6.08-7.662 7.908a497 497 0 0 0-4.739 4.917c-.824.875-2.286 2.385-3.25 3.355-.964.969-3.028 3.098-4.587 4.73a467 467 0 0 1-4.833 4.989c-1.1 1.111-4.21 4.308-6.91 7.103s-5.787 5.944-6.857 6.998-4.293 4.355-7.161 7.334c-6.464 6.714-9.356 9.689-11.825 12.161a758 758 0 0 0-6.573 6.755c-2.56 2.659-5.596 5.773-6.747 6.921a206 206 0 0 0-3.677 3.768 529 529 0 0 1-4.908 5.079 3289 3289 0 0 0-8.415 8.649 1120 1120 0 0 1-6.675 6.841c-.872.874-2.665 2.712-3.984 4.083-2.662 2.766-4.082 4.228-13.266 13.659a4468 4468 0 0 0-8.743 9 1294 1294 0 0 1-6.179 6.334 3356 3356 0 0 0-12.162 12.5 6724 6724 0 0 1-10.064 10.372c-2.254 2.307-2.406 2.557-2.03 3.344.684 1.435 7.093 10.359 8.583 11.95.343.367 1.217 1.416 1.942 2.331.725.914 1.58 1.928 1.901 2.252s1.532 1.638 2.693 2.92c2.199 2.43 4.028 4.245 6.547 6.498.82.733 2.02 1.823 2.667 2.422s1.926 1.687 2.843 2.416 1.704 1.368 1.75 1.42c.305.345 3.065 2.504 4.667 3.65 1.054.754 2.066 1.503 2.25 1.664.256.226 3.793 2.533 6.273 4.094.146.092.702.456 1.236.81.533.353 2.437 1.431 4.23 2.394s3.336 1.81 3.427 1.881c.406.317 4.387 2.242 6.667 3.224 1.375.592 3.207 1.389 4.072 1.771 2.117.934 5.551 2.204 8.41 3.11 1.293.409 2.876.923 3.518 1.142 4.712 1.606 14.489 3.678 21.219 4.495 1.129.138 2.117.29 2.196.338 1.374.85 21.153.906 25.909.074.464-.081 2.004-.299 3.424-.485 11.113-1.455 25.032-5.184 32.859-8.804.583-.27 1.922-.855 2.976-1.301 3.606-1.525 12.718-6.259 15.113-7.851.522-.347 1.555-1.008 2.294-1.469 2.845-1.775 8.261-5.614 10.404-7.374.7-.575 1.716-1.4 2.257-1.834 5.69-4.552 13.537-12.241 17.645-17.288.895-1.1 2.042-2.487 2.549-3.083a31 31 0 0 0 1.659-2.167 33 33 0 0 1 1.493-2c1.287-1.56 6.825-9.97 8.011-12.166a100 100 0 0 1 1.83-3.25c.963-1.595 2.04-3.773 3.316-6.703.59-1.355 1.369-3.139 1.731-3.964 1.074-2.448 3.106-8.05 4.804-13.25 4.73-14.483 6.662-37.004 4.461-52-1.993-13.572-5.369-26.249-9.189-34.5-.318-.687-1.177-2.6-1.91-4.25-1.645-3.709-3.206-6.7-6.347-12.167-1.161-2.021-4.932-7.744-6.589-10-2.695-3.668-3.812-5.152-4.141-5.5-.173-.183-.825-.971-1.448-1.75-3.884-4.855-12.343-13.425-16.43-16.644a63 63 0 0 1-2.272-1.878c-3.298-2.933-14.834-10.978-15.741-10.978-.389 0-.649.193-1.29.959m3.897 1.058c1.087.664 2.277 1.445 2.643 1.738.367.292 1.371 1.01 2.231 1.597 2.458 1.674 4.229 2.954 5.614 4.058.465.371 1.103.874 1.417 1.119s.961.808 1.436 1.25c1.079 1.005 1.725 1.555 1.824 1.555.088 0 .385.242 1.025.837.249.231.828.717 1.287 1.079 1.341 1.059 9.357 9.16 11.132 11.25.895 1.054 1.844 2.142 2.108 2.417s1.016 1.175 1.67 2 1.299 1.633 1.433 1.795c.757.918 2.147 2.89 2.113 2.997-.022.068.035.125.127.125s.167.065.167.145c0 .081.251.42.557.755s.663.813.792 1.062.29.529.359.621c.775 1.031 1.625 2.278 1.625 2.383 0 .127.154.348.93 1.34.191.244.491.706.667 1.027s.363.621.417.667c.053.045.427.646.83 1.333.404.688.905 1.507 1.115 1.82s.649 1.12.977 1.792.663 1.263.746 1.314.151.22.152.376c0 .155.184.496.409.757.225.262.497.75.604 1.084s.33.757.496.94c.312.345.731 1.239.684 1.459-.015.068.045.125.132.125.239 0 2.841 5.454 2.841 5.955 0 .136.217.671.483 1.188.783 1.525.883 1.866.606 2.062-.103.074-.067.124.09.125.258.003.924 1.133 1.039 1.764.033.177.265.772.515 1.322 1.096 2.405 3.133 8.584 2.83 8.584-.041 0 .018.168.131.375.114.206.226.45.25.541s.31 1.067.636 2.167c1.088 3.668 2.326 9.144 2.656 11.75.081.636.286 1.848.665 3.918 1.134 6.202 1.712 19.238 1.136 25.665a135 135 0 0 0-.288 3.917c-.22 4.111-.921 8.677-2.407 15.667a246 246 0 0 0-.689 3.333c-.303 1.577-.944 3.863-1.829 6.521-.47 1.409-.877 2.675-.906 2.812-.319 1.538-3.291 9.38-4.597 12.128-.36.758-.654 1.425-.654 1.482 0 .397-2.909 6.201-4.408 8.796-.876 1.516-1.592 2.785-1.592 2.821 0 .343-4.348 7.053-4.737 7.309-.099.065-.181.178-.182.25-.006.37-5.621 7.876-7.58 10.131-.796.917-1.916 2.229-2.488 2.917-1.552 1.863-9.301 9.654-11.104 11.162-.271.227-.905.747-1.409 1.157-.505.409-.992.829-1.084.933-.193.218-3.476 2.907-4.583 3.753-.413.315-.825.655-.917.755-.321.352-2.739 2.082-5.024 3.596-1.27.841-2.459 1.661-2.642 1.823-.585.517-4.882 3.097-7.417 4.453l-2.53 1.355c-4.432 2.375-5.841 3.093-7.39 3.768-.968.421-1.888.792-2.045.824s-.885.331-1.618.665c-4.912 2.241-10.122 4.044-17.417 6.027-4.18 1.136-10.343 2.394-13.75 2.807-.367.044-1.904.262-3.417.484-11.388 1.672-28.288.975-39.833-1.643-.963-.218-2.979-.671-4.481-1.008s-3.151-.743-3.666-.905a92 92 0 0 0-1.936-.579c-.55-.156-1.675-.499-2.5-.761s-2.06-.64-2.745-.839c-1.287-.375-4.159-1.424-6.339-2.315-.687-.281-1.299-.511-1.36-.512-.06 0-.66-.257-1.333-.57a162 162 0 0 0-3.64-1.598c-2.965-1.262-9.585-4.677-11.026-5.688-.243-.171-.506-.311-.583-.312-.358-.003-5.375-3.149-8.183-5.131a236 236 0 0 0-2.625-1.834c-.366-.248-.691-.507-.722-.576-.03-.068-.133-.125-.228-.125s-.445-.227-.778-.505a21 21 0 0 0-.772-.625c-.972-.695-2.248-1.682-2.583-1.999-.229-.216-1.129-.966-2-1.666a71 71 0 0 1-1.667-1.365 21 21 0 0 0-.75-.655c-1.142-.969-3.604-3.207-5.083-4.622a332 332 0 0 0-2.018-1.917c-.331-.309-1.074-1.087-1.651-1.729a196 196 0 0 0-2.148-2.342c-1.767-1.889-3.58-3.923-3.837-4.305-.13-.194-.506-.658-.833-1.03a41 41 0 0 1-1.513-1.89c-.504-.667-.996-1.3-1.092-1.406-.097-.107-.621-.794-1.166-1.527a49 49 0 0 0-1.076-1.417c-.047-.046-.302-.417-.567-.824-.264-.408-.546-.82-.626-.917-.475-.576-1.333-1.821-1.901-2.759-.36-.596-.744-1.177-.852-1.292a1.7 1.7 0 0 1-.304-.542c-.058-.183-.18-.332-.27-.332s-.119-.075-.063-.167c.057-.092.024-.167-.073-.167s-.177-.135-.177-.3c0-.349 1.279-1.7 1.61-1.7.123 0 .224-.078.224-.173 0-.195 1.317-1.493 1.516-1.493.07 0 .175-.15.234-.334.058-.183.217-.333.354-.333s.201-.077.143-.171c-.108-.174.831-1.162 1.104-1.162.082 0 .149-.113.149-.25 0-.138.061-.25.135-.25s.316-.169.538-.375c.221-.207.46-.375.531-.375s.123-.066.115-.146c-.007-.081.199-.286.459-.458.259-.171.42-.311.357-.312-.062-.001.256-.381.709-.845.452-.465.822-.919.822-1.01s.075-.119.167-.063c.149.092.238-.122.188-.452-.009-.065.094-.076.231-.024.138.053.248.003.248-.115 0-.116.3-.496.666-.844.367-.349.667-.696.667-.771 0-.179.624-.71.835-.71.091 0 .146-.062.123-.137s.277-.452.667-.839.713-.645.719-.572c.006.072.079-.04.163-.248.083-.208.322-.447.531-.531.208-.084.323-.157.254-.163-.068-.006.251-.372.709-.813.458-.442.832-.864.832-.939 0-.242 1.447-1.589 1.573-1.464.067.067.097.033.066-.076-.075-.267 4.207-4.731 4.415-4.602.09.056.117.026.06-.067-.114-.185 1.145-1.402 1.295-1.252.05.05.091.016.091-.076s.312-.498.693-.903l2.875-3.059c3.026-3.222 7.05-7.259 7.234-7.259.085 0 .348-.293.584-.651.439-.663 1.637-1.924 7.531-7.931a840 840 0 0 0 5.833-6.009c2.978-3.112 2.555-2.683 4.293-4.36.779-.752 1.376-1.408 1.326-1.458s.018-.091.15-.091c.133 0 .349-.15.481-.334.132-.183.337-.333.454-.333a.217.217 0 0 0 .213-.22c0-.121.169-.374.375-.562s.62-.618.919-.955c.319-.359.624-.564.737-.494q.19.116.091-.146-.104-.265.471-.703c.316-.24.574-.507.574-.593 0-.272.552-.814.722-.709.089.055.116.025.06-.066-.125-.202 1.537-1.825 1.789-1.746.098.03.123-.001.055-.069-.154-.153 4.047-4.419 4.237-4.302.075.047.137-.01.137-.125s.22-.439.49-.718a584 584 0 0 1 6.26-6.504 838 838 0 0 0 3.916-4.035c.687-.716 3.694-3.795 6.682-6.842s7.488-7.656 10.001-10.243 6.04-6.207 7.84-8.044a670 670 0 0 0 4.667-4.803 151 151 0 0 1 2.442-2.5 295 295 0 0 0 4.156-4.22c.48-.495.953-.901 1.052-.901s.134-.075.077-.167c-.057-.091.014-.166.157-.166s.26-.088.26-.195c0-.233-.162-.065 11.583-12.049.55-.561 1.664-1.709 2.476-2.551.811-.842 1.768-1.796 2.125-2.118.358-.323.609-.587.56-.587-.087 0 1.721-1.88 7.855-8.164 1.566-1.606 3.303-3.388 3.858-3.961S232.729 71 232.845 71s.167-.043.115-.096.141-.342.43-.642c.29-.301 1.028-1.083 1.64-1.738s1.198-1.191 1.301-1.191c.104 0 .149-.064.1-.144-.109-.175 1.158-1.377 1.301-1.235.056.056.101-.023.101-.176s.113-.278.25-.278c.138 0 .25-.125.25-.278s.047-.231.105-.173c.057.057.263-.131.458-.418.195-.288.429-.514.521-.502.091.011.264-.166.383-.393.121-.232.297-.363.4-.299.104.065.138.039.078-.059-.059-.095.222-.476.625-.847.402-.371.701-.705.664-.742s.251-.372.641-.745 2.131-2.11 3.869-3.861S249.296 54 249.368 54s.132-.099.132-.219 1.907-2.145 4.237-4.5S257.958 45 257.938 45c-.04 0 2.957-3.179 3.175-3.369.668-.579 2.054-1.966 2.054-2.054 0-.061.458-.586 1.018-1.166 1.203-1.246.941-1.277 3.755.439" fill="#3fe296"/>
  </g>
</svg>
